<svg width="1485" height="564" viewBox="0 0 1485 564" fill="none" xmlns="http://www.w3.org/2000/svg">
<path d="M214.19 41C242.348 109.147 270.476 177.235 298.575 245.265C297.824 245.79 297.382 245.265 296.941 245.265C292.523 243.862 288.104 242.417 283.686 241.146C282.952 240.954 282.27 240.603 281.689 240.118C281.109 239.633 280.644 239.027 280.329 238.342C265.248 209.599 250.138 180.871 234.999 152.158L218.298 120.48L217.194 118.377C216.31 118.684 216.354 119.472 216.133 119.998L180.789 216.391C169.979 245.893 159.184 275.38 148.404 304.853C146.239 310.724 145.002 316.858 143.367 322.904C141.382 329.975 139.833 337.16 138.728 344.417C137.918 350.105 137.637 355.854 137.889 361.593C138.004 366.236 138.566 370.857 139.568 375.394C142.585 386.622 148.706 396.789 157.24 404.75C166.818 413.79 178.216 420.718 190.685 425.08C198.79 428.058 207.209 430.115 215.78 431.214C224.659 432.339 233.632 432.544 242.554 431.828C253.654 430.998 264.583 428.638 275.027 424.818C288.047 420.162 299.852 412.677 309.576 402.91C317.799 394.821 323.53 384.578 326.1 373.379C326.817 370.107 327.246 366.779 327.381 363.433C328.266 365.276 328.791 367.268 328.928 369.304C330.198 377.576 329.806 386.016 327.774 394.137C325.742 402.258 322.11 409.901 317.087 416.624C309.379 427.212 299.503 436.067 288.104 442.606C274.302 450.625 259.132 456.06 243.349 458.643C232.736 460.495 221.949 461.171 211.185 460.658C191.661 459.922 172.532 454.989 155.119 446.199C141.106 439.35 128.978 429.231 119.775 416.712C113.274 408.043 109.039 397.912 107.448 387.224C105.065 372.715 105.065 357.919 107.448 343.41C108.873 336.57 109.862 329.648 110.408 322.685C110.546 321.526 110.843 320.391 111.292 319.311C123.486 286.1 135.665 252.874 147.83 219.633C169.361 161.096 190.965 102.472 212.643 43.7603C212.952 42.8402 213.306 41.9201 213.659 41H214.19Z" fill="black"/>
<path d="M51.2507 397.083C69.2618 424.899 94.0261 447.786 123.273 463.645C152.52 479.505 185.313 487.829 218.647 487.855C251.98 487.881 284.787 479.608 314.059 463.795C343.331 447.981 368.132 425.133 386.187 397.346C386.629 398.047 386.187 398.529 386.187 399.011C375.795 428.22 358.422 454.499 335.556 475.599C318.603 491.326 298.677 503.567 276.928 511.615C267.184 515.2 257.127 517.884 246.884 519.633C235.219 521.638 223.367 522.373 211.54 521.823C176.461 520.219 142.754 507.831 115.092 486.377C92.4688 469.082 74.1118 446.906 61.4124 421.531C57.7757 414.433 54.5885 407.116 51.8693 399.624C51.447 398.843 51.234 397.968 51.2507 397.083Z" fill="black"/>
<path d="M439.426 381.748C405.011 346.342 362.48 319.707 315.454 304.108C268.484 288.717 218.437 284.927 169.656 293.066C169.347 292.19 169.656 291.577 170.054 290.92C174.737 277.775 179.464 264.981 184.103 251.968C184.277 251.247 184.698 250.607 185.294 250.16C185.891 249.712 186.625 249.484 187.373 249.515C192.056 249.12 196.695 248.288 201.334 247.937C207.122 247.543 212.909 247.28 218.697 247.324C224.485 247.368 230.714 247.324 236.723 247.893C267.81 250.181 298.13 258.566 325.924 272.561C344.479 281.961 361.808 293.57 377.528 307.131C400.889 327.379 421.028 351.014 437.261 377.235L440 381.616L439.426 381.748Z" fill="black"/>
<path d="M0 386.129L2.34159 382.274C14.8391 362.147 29.3605 343.327 45.6833 326.103C64.5675 306.034 86.4404 288.953 110.541 275.453L112.087 274.665C112.618 275.147 112.087 275.628 112.087 276.023C107.669 289.167 102.765 301.83 98.1262 314.755C97.9283 315.258 97.6251 315.713 97.2367 316.09C96.8483 316.468 96.3834 316.76 95.8729 316.946C86.2597 321.588 76.8955 326.721 67.8179 332.325C52.4006 341.864 37.7612 352.588 24.0345 364.397C16.5237 370.794 9.30751 377.498 2.38581 384.508C1.73498 385.199 1.12989 385.931 0.574375 386.699L0 386.129Z" fill="black"/>
<path d="M622.886 432.734C597.821 432.734 579.364 425.728 567.515 411.714C555.666 397.586 549.741 376.851 549.741 349.507V129.219H608.188V347.114C608.188 352.127 608.473 356.969 609.043 361.641C609.613 366.198 610.923 369.958 612.974 372.92C615.024 375.882 618.328 377.363 622.886 377.363C627.557 377.363 630.918 375.939 632.969 373.091C635.02 370.129 636.273 366.312 636.729 361.641C637.298 356.969 637.583 352.127 637.583 347.114V129.219H696.03V349.507C696.03 376.851 690.106 397.586 678.257 411.714C666.408 425.728 647.951 432.734 622.886 432.734ZM718.076 430V173.652H779.258V206.294C781.536 196.496 785.752 188.179 791.904 181.343C798.171 174.393 806.829 170.918 817.881 170.918C835.654 170.918 848.529 176.387 856.504 187.324C864.593 198.262 868.638 213.244 868.638 232.271V430H808.311V238.594C808.311 233.581 807.285 228.966 805.234 224.751C803.184 220.422 799.652 218.257 794.639 218.257C789.967 218.257 786.493 219.909 784.214 223.213C782.049 226.403 780.682 230.448 780.112 235.347C779.543 240.132 779.258 244.917 779.258 249.702V430H718.076ZM893.76 430V129.219H975.278C997.153 129.219 1013.05 134.574 1022.96 145.283C1032.99 155.879 1038 173.424 1038 197.92V211.079C1038 225.207 1035.43 236.657 1030.31 245.43C1025.29 254.202 1017.6 259.956 1007.24 262.69C1020.79 266.108 1029.85 274.141 1034.41 286.787C1039.08 299.32 1041.42 314.644 1041.42 332.759C1041.42 352.241 1039.59 369.274 1035.95 383.857C1032.3 398.441 1025.69 409.777 1016.12 417.866C1006.55 425.955 992.938 430 975.278 430H893.76ZM952.549 242.524H964.854C970.436 242.524 974.025 240.36 975.62 236.03C977.215 231.701 978.013 226.517 978.013 220.479V190.229C978.013 180.545 973.74 175.703 965.195 175.703H952.549V242.524ZM958.53 377.021C974.139 377.021 981.943 369.616 981.943 354.805V317.207C981.943 308.662 980.633 301.94 978.013 297.041C975.506 292.028 970.721 289.521 963.657 289.521H952.549V376.68C955.055 376.908 957.049 377.021 958.53 377.021ZM1134.73 432.734C1083.68 432.734 1058.16 406.245 1058.16 353.267V250.386C1058.16 226.232 1064.94 206.978 1078.5 192.622C1092.06 178.153 1110.8 170.918 1134.73 170.918C1158.77 170.918 1177.57 178.153 1191.12 192.622C1204.68 206.978 1211.46 226.232 1211.46 250.386V353.267C1211.46 406.245 1185.88 432.734 1134.73 432.734ZM1134.73 385.566C1139.85 385.566 1143.5 383.743 1145.66 380.098C1147.94 376.338 1149.08 371.61 1149.08 365.913V240.645C1149.08 225.719 1144.3 218.257 1134.73 218.257C1125.16 218.257 1120.37 225.719 1120.37 240.645V365.913C1120.37 371.61 1121.45 376.338 1123.62 380.098C1125.9 383.743 1129.6 385.566 1134.73 385.566ZM1234.19 430V129.219H1296.4V430H1234.19ZM1373.64 432.734C1357.12 432.734 1345.96 429.259 1340.15 422.31C1334.45 415.246 1331.6 404.479 1331.6 390.01V230.22H1314.34V183.564H1331.6V129.219H1391.07V183.564H1408.33V230.22H1391.07V375.654C1391.07 379.87 1391.76 382.832 1393.12 384.541C1394.49 386.25 1397.11 387.104 1400.99 387.104C1403.72 387.104 1406.17 386.877 1408.33 386.421V428.12C1406.97 428.576 1402.7 429.43 1395.52 430.684C1388.34 432.051 1381.05 432.734 1373.64 432.734Z" fill="black"/>
</svg>
