<svg width="55" height="60" viewBox="0 0 55 60" fill="none" xmlns="http://www.w3.org/2000/svg">
<path d="M26.7736 0C30.2934 8.50061 33.8095 16.9939 37.3219 25.48C37.228 25.5456 37.1728 25.48 37.1175 25.48C36.5653 25.3051 36.013 25.1247 35.4607 24.9662C35.369 24.9423 35.2837 24.8985 35.2111 24.8381C35.1385 24.7776 35.0804 24.7019 35.041 24.6164C33.156 21.0311 31.2672 17.4476 29.3748 13.8659L27.2872 9.91435L27.1492 9.652C27.0387 9.69026 27.0442 9.78864 27.0166 9.85423L22.5985 21.8782C21.2473 25.5583 19.898 29.2366 18.5504 32.913C18.2798 33.6454 18.1252 34.4105 17.9208 35.1648C17.6727 36.0468 17.479 36.943 17.341 37.8483C17.2397 38.5578 17.2046 39.275 17.236 39.9908C17.2504 40.57 17.3207 41.1465 17.4459 41.7124C17.8231 43.1129 18.5882 44.3812 19.655 45.3743C20.8522 46.5019 22.2769 47.3661 23.8356 47.9102C24.8487 48.2816 25.901 48.5383 26.9725 48.6754C28.0823 48.8157 29.2039 48.8413 30.3192 48.7519C31.7067 48.6484 33.0729 48.354 34.3783 47.8774C36.0058 47.2967 37.4814 46.363 38.697 45.1447C39.7248 44.1357 40.4412 42.858 40.7625 41.461C40.8521 41.0528 40.9057 40.6377 40.9226 40.2203C41.0332 40.4502 41.0988 40.6987 41.1159 40.9527C41.2747 41.9846 41.2257 43.0373 40.9717 44.0504C40.7177 45.0634 40.2637 46.0167 39.6359 46.8554C38.6724 48.1762 37.4378 49.2806 36.013 50.0964C34.2877 51.0966 32.3914 51.7747 30.4186 52.0968C29.092 52.3278 27.7435 52.4121 26.3981 52.3482C23.9576 52.2564 21.5664 51.641 19.3899 50.5446C17.6382 49.6902 16.1222 48.428 14.9718 46.8663C14.1591 45.785 13.6298 44.5213 13.4309 43.1881C13.133 41.3782 13.133 39.5325 13.4309 37.7226C13.6091 36.8694 13.7326 36.006 13.801 35.1374C13.8181 34.9928 13.8553 34.8512 13.9114 34.7166C15.4357 30.5738 16.9581 26.4291 18.4786 22.2827C21.17 14.9808 23.8706 7.66804 26.5803 0.344324C26.619 0.229549 26.6632 0.114775 26.7074 0H26.7736Z" fill="black"/>
<path d="M6.40636 44.4177C8.65775 47.8875 11.7533 50.7424 15.4091 52.7207C19.065 54.699 23.1642 55.7374 27.3309 55.7407C31.4976 55.744 35.5984 54.712 39.2574 52.7394C42.9165 50.7668 46.0165 47.9168 48.2735 44.4505C48.3287 44.538 48.2735 44.5981 48.2735 44.6582C46.9744 48.3018 44.8028 51.5798 41.9445 54.2118C39.8255 56.1736 37.3347 57.7006 34.616 58.7044C33.398 59.1517 32.1409 59.4865 30.8606 59.7046C29.4024 59.9548 27.9209 60.0464 26.4425 59.9779C22.0576 59.7778 17.8443 58.2325 14.3866 55.5563C11.5586 53.3989 9.264 50.6327 7.67657 47.4675C7.22199 46.5819 6.82359 45.6693 6.48368 44.7347C6.43089 44.6374 6.40427 44.5282 6.40636 44.4177Z" fill="black"/>
<path d="M54.9284 42.5048C50.6265 38.0884 45.3102 34.7659 39.4319 32.82C33.5607 30.9002 27.3048 30.4274 21.2072 31.4427C21.1685 31.3334 21.2072 31.2569 21.2569 31.1749C21.8423 29.5353 22.4332 27.9394 23.013 26.3161C23.0347 26.2261 23.0874 26.1464 23.1619 26.0906C23.2365 26.0347 23.3283 26.0063 23.4217 26.0101C24.0071 25.9609 24.587 25.857 25.1669 25.8133C25.8903 25.7641 26.6138 25.7313 27.3373 25.7368C28.0607 25.7423 28.8394 25.7368 29.5905 25.8079C33.4764 26.0932 37.2664 27.1391 40.7407 28.8849C43.06 30.0575 45.2261 31.5056 47.1912 33.1972C50.1113 35.7228 52.6287 38.6711 54.6578 41.9419L55.0002 42.4884L54.9284 42.5048Z" fill="black"/>
<path d="M0 43.0514L0.292699 42.5705C1.85489 40.0598 3.67007 37.7123 5.71041 35.5637C8.07094 33.0603 10.8051 30.9296 13.8176 29.2457L14.0109 29.1473C14.0772 29.2074 14.0109 29.2675 14.0109 29.3167C13.4587 30.9563 12.8457 32.5359 12.2658 34.1482C12.241 34.2109 12.2031 34.2676 12.1546 34.3147C12.106 34.3618 12.0479 34.3982 11.9841 34.4214C10.7825 35.0005 9.61195 35.6409 8.47725 36.3398C6.55008 37.5298 4.72016 38.8674 3.00432 40.3405C2.06547 41.1385 1.16344 41.9747 0.298227 42.8492C0.216872 42.9353 0.141236 43.0266 0.071797 43.1225L0 43.0514Z" fill="black"/>
</svg>
